<svg id="Layer_1" data-name="Layer 1" xmlns="http://www.w3.org/2000/svg" viewBox="0 0 33.34 36.39"><defs><style>.cls-1{fill:none;stroke:#fff;stroke-miterlimit:10;}.cls-2{fill:#fff;}</style></defs><path class="cls-1" d="M57.41,121.18c2.71,5,8.48,7.43,14.55,7.43a16,16,0,0,0,16-16c0-.54,0-1.08-.08-1.61A16,16,0,0,0,72,96.61a15.22,15.22,0,0,0-1.79.1A16,16,0,0,0,59,103.18l-.41.81.6-.52A11.69,11.69,0,0,1,65.3,103c4.31.78,8.29,1.65,8.29,1.65s-.46-.28-3.42-2.76,0-5.18,0-5.18A11.42,11.42,0,0,1,87.88,111c-2,3.06-7.22,5.06-11.23,5.56" transform="translate(-56.97 -92.72)"/><path class="cls-1" d="M76.65,116.56a30.73,30.73,0,0,1-7.44.26c-3.44-.36-9.6,2.65-10.74,3.8l-1.14,1.16" transform="translate(-56.97 -92.72)"/><circle class="cls-2" cx="10.08" cy="27.29" r="0.68"/></svg>